<svg width="24" height="24" viewBox="0 0 24 24" fill="none" xmlns="http://www.w3.org/2000/svg">
<path fill-rule="evenodd" clip-rule="evenodd" d="M20.548 15.541C19.8556 17.2139 20.4664 18.4907 21.1335 19.835L19.8328 21.1357L19.8254 21.1318C18.5165 20.4814 17.2367 19.8457 15.5457 20.5474C13.8706 21.2446 13.3979 22.5791 12.9203 24H11.0797C10.6021 22.5781 10.1306 21.2437 8.46033 20.5498C6.76044 19.8457 5.45636 20.4941 4.17206 21.1328L4.16595 21.1357L2.86652 19.835C3.53485 18.4932 4.14557 17.2188 3.45087 15.5386C2.7561 13.8696 1.42188 13.3979 0 12.9204V11.0806C1.42188 10.603 2.7561 10.1318 3.44965 8.45996C4.14319 6.78711 3.53125 5.50928 2.86414 4.16504L4.16479 2.86426L4.17078 2.86719C5.46704 3.51221 6.76154 4.15576 8.46033 3.4502C10.1306 2.75781 10.6021 1.42188 11.0797 0H12.9203C13.3979 1.42188 13.8706 2.75635 15.5408 3.4502C17.2395 4.15381 18.5416 3.50684 19.8262 2.86914L19.8352 2.86426L21.1359 4.16504C20.4688 5.51025 19.858 6.78955 20.5504 8.46143C21.2427 10.1304 22.577 10.6021 24 11.0806V12.9214C22.5745 13.3994 21.2379 13.8706 20.548 15.541ZM11.9988 6C8.68475 6 5.99939 8.68555 5.99939 12C5.99939 15.3145 8.68475 18 11.9988 18C15.3129 18 17.9982 15.3145 17.9982 12C17.9982 8.68555 15.3129 6 11.9988 6Z" fill="#FAFAFA"/>
</svg>
