<svg width="28" height="28" viewBox="0 0 28 28" fill="none" xmlns="http://www.w3.org/2000/svg">
<path fill-rule="evenodd" clip-rule="evenodd" d="M2.48533 12.9854C1.65691 12.9854 0.985334 13.6569 0.985334 14.4854C0.985334 15.3138 1.65691 15.9854 2.48533 15.9854L12.9854 15.9854L12.9854 26.4855C12.9854 27.3139 13.657 27.9855 14.4854 27.9855C15.3139 27.9855 15.9854 27.3139 15.9854 26.4855L15.9854 15.9854L26.4853 15.9854C27.3138 15.9854 27.9853 15.3138 27.9853 14.4854C27.9853 13.6569 27.3138 12.9854 26.4853 12.9854H15.9854L15.9854 2.48545C15.9854 1.65703 15.3139 0.985452 14.4854 0.985451C13.657 0.985451 12.9854 1.65703 12.9854 2.48545L12.9854 12.9854L2.48533 12.9854Z" fill="#C9C9C9"/>
</svg>
